<?xml version="1.0" standalone="no"?>
<!DOCTYPE svg PUBLIC "-//W3C//DTD SVG 20010904//EN"
 "http://www.w3.org/TR/2001/REC-SVG-20010904/DTD/svg10.dtd">
<svg version="1.0" xmlns="http://www.w3.org/2000/svg"
 width="16.000000pt" height="16.000000pt" viewBox="0 0 16.000000 16.000000"
 preserveAspectRatio="xMidYMid meet">
<metadata>
Created by potrace 1.11, written by Peter Selinger 2001-2013
</metadata>
<g transform="translate(0.000000,16.000000) scale(0.006250,-0.006250)"
fill="#000000" stroke="none">
<path d="M778 2554 c-2 -1 -26 -4 -53 -6 l-50 -3 1 -75 c1 -93 32 -218 76
-307 43 -87 152 -200 226 -233 28 -13 52 -24 52 -25 0 -1 -24 -27 -54 -58 -95
-97 -142 -202 -152 -332 -9 -123 -12 -153 -25 -197 -17 -55 -66 -139 -123
-208 -130 -157 -183 -372 -139 -565 57 -250 256 -449 512 -510 58 -14 94 -16
175 -11 55 4 106 6 111 6 140 -11 249 -8 314 10 361 100 575 461 482 812 -29
110 -47 144 -181 327 -59 80 -80 148 -91 284 -11 143 -39 231 -102 320 -25 35
-69 82 -99 104 -51 40 -151 93 -175 93 -25 0 -23 21 8 87 70 149 170 257 304
324 72 36 90 61 80 110 -15 65 -72 73 -168 24 -115 -59 -213 -147 -286 -257
-29 -42 -41 -54 -50 -45 -6 6 -11 16 -11 22 0 16 -63 106 -101 144 -83 83
-224 145 -355 157 -38 3 -81 7 -96 9 -15 1 -29 1 -30 -1z"/>
</g>
</svg>
